<svg xmlns="http://www.w3.org/2000/svg" version="1.1" xmlns:xlink="http://www.w3.org/1999/xlink" xmlns:svgjs="http://svgjs.dev/svgjs" width="1000" height="1125" viewBox="0 0 1000 1125"><g transform="matrix(1,0,0,1,1.7053025658242404e-13,0)"><svg viewBox="0 0 320 360" data-background-color="#883d1a" preserveAspectRatio="xMidYMid meet" height="1125" width="1000" xmlns="http://www.w3.org/2000/svg" xmlns:xlink="http://www.w3.org/1999/xlink"><g id="tight-bounds" transform="matrix(1,0,0,1,-5.684341886080802e-14,0)"><svg viewBox="0 0 320 360" height="360" width="320"><g><svg></svg></g><g><svg viewBox="0 0 320 360" height="360" width="320"><g><path xmlns="http://www.w3.org/2000/svg" d="M85.508 32.884c0-1.117 0.558-2.233 1.675-2.233 1.117 0 2.233 0.558 2.234 2.233 0.558 0 1.675 0 2.233-0.558 2.233 0 4.467-0.558 6.141 0 1.675 0.558 2.792 0.558 4.467 1.117 1.675 0.558 2.792 0 3.908-0.559 2.233-0.558 3.908-1.675 6.141-2.233 1.117-0.558 1.675-0.558 2.792-0.558 1.117-0.558 2.233-0.558 3.908-1.117 2.792-0.558 5.583-1.117 7.817-2.233 2.233-1.117 4.467-1.117 6.699-1.675 1.117 0 1.675-0.558 2.792-1.117 0.558 0 0.558-0.558 1.116-1.116 1.117-0.558 1.675-1.117 2.792-0.559 0.558 0.558 1.675 0.558 2.233 0h0.559c3.35 0 6.7-0.558 10.608 0 0.558 0 1.117 0 1.116 0 1.675-1.117 3.908-1.117 6.142-1.116 0.558 0 1.675 0 2.233 0h0.558c2.233 0 4.467 0 6.142 0.558 1.675 0 2.792 0.558 4.466 1.117 1.675 0 2.792 0 4.467 0.558 1.117 0 2.233 0 3.35 0 0.558 0 1.117 0 1.116 0 2.233 0.558 4.467 0.558 6.7 0.558 1.675 0.558 3.35 1.117 5.583 1.117 0.558 0 1.117 0 1.675 0 0.558 0 1.117 0.558 1.675 0.558l0.558 0.559c2.233 0 3.908 1.117 6.142 1.116 0.558 0 1.675 0 2.233 0.559 1.675 1.117 3.908 1.675 6.141 1.675 1.117 0 1.675 0.558 2.234 1.116 1.675 0.558 2.792 1.117 4.466 1.675 1.117 0.558 2.233 0 3.35 0.558 1.675 0.558 3.908 1.117 5.583 2.792 1.117 1.117 2.233 1.117 3.908 2.233 0.558 0 1.117 0.558 1.675 1.117 1.675 1.117 3.35 2.233 5.025 2.791 0.558 0 1.117 0.558 1.675 0.559 1.675 1.117 3.35 2.792 5.583 3.908 1.117 0.558 1.675 1.117 2.792 1.675h0.558c1.675 1.675 3.908 2.792 5.583 4.466 1.675 1.675 2.792 2.792 5.025 3.909 0 0 0 0 0 0.558 0.558 1.117 1.117 1.675 2.233 2.233 1.117 0.558 1.675 1.117 2.234 1.675 1.675 1.117 3.35 2.233 4.466 3.35 0.558 0.558 1.117 1.117 2.233 2.233 0.558 0.558 1.117 1.117 1.675 1.117 2.233 0.558 3.35 2.233 5.025 3.908 1.117 1.117 2.792 2.792 3.908 3.908 0.558 0.558 1.117 1.675 1.675 2.792 1.117 3.35 2.792 6.7 4.467 9.491 0 0 0 0.558 0.558 1.117v0.558c1.117 1.117 1.675 2.792 2.792 3.908 0.558 0.558 0.558 1.117 1.116 1.675 1.117 1.675 1.675 3.908 2.792 5.583 1.675 2.792 2.792 5.583 3.908 8.375v0.558c0.558 1.117 1.117 2.233 1.675 3.908 0 1.117 1.117 2.233 1.675 3.909 0.558 2.792 2.233 5.583 2.791 8.933 0 0.558 0.558 1.117 0.559 2.233 0.558 1.675 1.117 3.35 1.675 5.025 0 0.558 0.558 1.117 1.116 1.675 1.117 1.117 1.117 2.233 1.117 3.35-0.558 2.233 0 4.467 0.558 6.699 0 0.558 0 1.117 0 2.234 0.558 2.233 1.117 5.025 1.117 7.258 0 0.558 0 1.675 0 2.233 0 1.675 0.558 3.35 1.675 5.025 0 0.558 0.558 0.558 0.558 0.558 0.558 0.558 1.117 1.675 1.675 2.233 0.558 0.558 0.558 0.558 1.117 1.117 1.117 1.117 1.675 2.233 1.675 3.908 0 0.558-0.558 1.675-0.559 2.233 0 0.558 0 1.675 0.559 2.234 0.558 0.558 0.558 1.117 0.558 1.675 0 0.558-0.558 1.117-1.117 1.116v0c-0.558 1.675-2.792 2.233-3.35 3.908-0.558 2.233-1.117 4.467-1.674 6.7-0.558 1.675-0.558 2.792-0.559 4.467 0 1.675-0.558 2.792-0.558 4.466-0.558 2.233-1.117 4.467-1.675 6.7 0 1.117-0.558 2.233-0.558 3.35 0.558 0.558 1.117 1.117 1.675 1.116 1.117 1.117 2.233 2.233 3.349 3.35 0.558 0.558 0.558 1.117 0 1.117-0.558 0.558-1.117 0.558-1.674 0.558-0.558-0.558-1.675-1.117-2.234-1.116-0.558-0.558-1.675-1.117-2.791-0.559 0 1.117-0.558 2.233-0.559 2.792-0.558 1.117-1.117 2.792-1.116 3.908-0.558 2.233-1.675 3.908-2.233 6.142-1.117 2.792-2.233 5.025-3.35 7.258-0.558 1.117-1.117 2.233-1.675 3.35v0c0 1.675-1.675 3.35-2.234 5.024-1.117 2.233-2.233 4.467-3.349 7.258-0.558 1.117-1.117 2.233-1.675 2.792-1.117 2.792-2.233 5.025-3.909 7.258-1.117 1.675-2.233 2.792-3.349 3.35-1.117 1.117-2.233 2.233-3.35 3.35-0.558 0.558-1.117 1.117-1.675 1.675-0.558 0.558-0.558 0.558-1.117 1.116-1.117 1.675-2.792 2.792-3.908 4.467-1.117 1.117-1.675 2.233-3.35 3.35-1.117 1.117-2.233 2.792-3.908 3.35-0.558 0.558-1.117 1.675-1.675 2.233-0.558 0.558-1.117 1.675-1.675 2.233 0 1.117 0.558 2.233 0.558 2.792 0 1.675-1.675 2.233-2.791 1.116-1.675-1.117-1.675-1.117-3.35 0-1.675 1.117-3.35 2.792-5.583 3.35-0.558 0-0.558 0.558-1.117 0.559-1.117 0.558-1.675 1.675-2.792 2.233-1.117 1.117-2.792 1.675-3.908 2.791-0.558 0.558-1.117 0.558-1.675 1.117-1.675 1.117-3.35 1.675-5.024 3.35-0.558 0.558-1.117 0.558-1.675 1.117 0 0.558 0 0.558 0 1.116 0 1.117-1.117 2.233-2.792 1.675-1.675-0.558-2.792 0-4.466 0-1.675 0.558-3.35 1.675-5.025 2.233-0.558 0-1.117 0.558-1.675 1.117-1.675 1.117-3.35 1.675-5.025 2.233-1.117 0-2.233 1.117-3.35 1.117-0.558 0-1.117 0.558-1.675 0.558h-0.558c-2.233 1.675-4.467 2.792-6.7 4.467-0.558 0-0.558 0.558-1.117 1.116-0.558 1.117-1.117 1.675-2.233 1.675-2.792 0-3.908 2.233-3.35 4.467 0 0.558 0.558 1.117 0.559 1.675 0.558 1.117 0 2.233-0.559 2.791-0.558 0.558-2.233 0.558-2.791-0.558-1.117-1.117-1.675-2.233-2.234-3.908-0.558-1.117-1.675-2.233-2.791-2.792-1.117-0.558-2.233-0.558-3.35 0-0.558 0-0.558 0.558-1.117 0.558-1.117 1.117-2.792 1.675-4.466 1.117-0.558 0-1.675 0-1.675 0.558-0.558 0.558-0.558 1.675 0 2.234 1.117 1.117 0.558 2.233 0.558 3.908 0 2.233-1.675 3.35-3.908 2.233-0.558-0.558-1.117-0.558-1.675-1.117-0.558 0-0.558-0.558-0.558-1.116-0.558-0.558-0.558-1.675-1.117-2.792-1.117 0.558-2.233 0.558-3.35 1.117-0.558 0-1.117 0.558-1.675 0.558-1.675 0-2.233 0-2.791-1.675-0.558-1.675-1.675-1.675-2.792-2.233-2.233-0.558-5.025-0.558-7.258-1.675h-0.558c-2.233-1.675-4.467-1.675-7.258-1.675-1.675 0-3.35 0.558-5.025 0.558-1.675 0-2.792 0.558-3.908 1.675-0.558 0.558-1.117 1.117-1.675 1.117-0.558-0.558-0.558-1.117-1.117-1.675v-0.558c0-0.558-0.558-1.117-1.116-0.559-1.117 0.558-2.233-0.558-3.35-1.116-0.558-0.558-1.675-1.675-1.675-2.792-0.558-0.558-1.117-1.117-1.675-1.116-1.117 0-2.792-0.558-3.908-0.559-0.558 0-1.117 0-1.117-0.558-0.558-0.558-1.117-0.558-2.233-0.558-0.558 0-0.558-0.558-1.117-0.559 1.117 1.117 1.675 2.233 2.233 3.35 0 0.558 0.558 0.558 0.559 1.117 0.558 1.117 0 1.675-1.675 1.675-1.117 0-1.117 0-1.675 0.558 0 1.117 0 1.675 0 2.792 0 0.558 0 1.117-1.117 1.675 0 0-0.558 0-0.558 0.558-0.558 0.558-0.558 1.117 0 1.675 1.675 1.117 2.792 1.675 4.466 2.233 1.675 0 1.675 1.117 2.234 2.233 0.558 1.117 0 1.675-0.559 2.792-1.117 1.117-2.233 2.233-3.35 3.35-1.675 0.558-2.792 2.233-4.466 2.233-1.117 0-2.233-0.558-2.792-1.675-0.558-2.792-0.558-5.025 0.559-7.816 0-0.558 0.558-1.117 0-1.675-5.025 0-5.025-1.117-5.025-1.675 0-1.117 0.558-1.675 0.558-2.792 0.558-1.117 0-1.675-1.675-2.233-0.558 0-1.117 0-1.675 0-0.558 0-0.558-0.558-1.675-0.558 1.117-0.558 1.675-0.558 2.792-1.117-0.558-2.233-1.117-3.908-2.792-5.025-0.558-0.558-1.117-1.117-1.116-2.233 0-1.675-1.117-2.792-1.675-3.908-1.117-1.675-3.35-2.233-5.025-2.233-1.675-0.558-2.792-0.558-4.467-1.117-1.675-0.558-3.35-2.233-5.024-2.792-0.558-0.558-1.117-1.117-2.234-1.674-2.233-1.117-3.908-2.792-5.583-4.467-1.117-0.558-1.675-1.675-2.791-2.233-1.117-1.117-1.675-2.233-2.792-2.792-1.117-1.117-2.233-2.233-3.908-3.35-1.675-1.117-2.792-2.792-4.467-4.466-1.117-1.675-2.792-2.792-4.466-3.908-0.558 0-1.117 0-1.675 0-0.558 0-1.117 0.558-1.675 0.558-1.675 0.558-2.792 1.675-4.467 2.233 0.558-0.558 0.558-0.558 0-1.675-0.558-0.558-1.117-1.117-1.674-1.116-1.117 0-2.233 0-3.35 0-2.233 0-4.467 0.558-6.7 0.558-1.675 0-3.908 0.558-5.583 1.117 0.558 1.117 0.558 1.675 1.116 2.791-1.117 0.558-2.233 0.558-3.35 0.558-0.558 0-1.675 0.558-2.233 1.117-0.558 0-0.558 0.558-1.116 0-1.117-0.558-2.233 0-3.35 0.558h-0.559c0 0 0-0.558 0.559-0.558 0.558-0.558 1.117-1.117 1.675-1.675 0.558-0.558 1.117-0.558 2.233-1.117-0.558-0.558-0.558-1.117-0.558-1.116-0.558-0.558-1.117-0.558-1.675 0-0.558 0.558-1.117 1.117-1.675 1.675-0.558 0.558-1.117 0.558-1.675 0-0.558-0.558-0.558-1.117 0-1.675 0-0.558 0.558-1.117 1.116-1.675 0.558-0.558 0.558-1.117 1.117-1.675-1.117-1.117-1.675-2.233-2.792-2.792-1.675-1.117-3.35-2.792-4.466-4.466-1.117-2.233-2.792-3.908-5.025-5.025-0.558-0.558-1.117-1.117-1.675-1.675-0.558-0.558-0.558-0.558-1.116-1.117-1.675 0.558-2.792 1.675-4.467 2.234-0.558 0-0.558 0.558-1.117 1.116-0.558 1.117-1.675 1.117-2.791 1.117-0.558 0-1.117-0.558-0.558-1.117 0.558-1.117 1.117-2.233 2.791-1.675 0 0 0.558 0 0.558-0.558 1.117-1.117 2.233-2.792 3.909-3.908-0.558-1.675-1.675-2.792-2.234-3.908-0.558-0.558-0.558-1.117-0.558-2.234 0-0.558 0-0.558-0.558-1.116 0 0-0.558 0-1.117 0.558-0.558 0.558-1.675 1.117-2.791 0 0-0.558 0-1.117 0.558-1.675l0.558-0.558c1.675-0.558 1.675-2.233 1.675-3.908v-0.559c-0.558-1.117-0.558-1.675 0.558-2.791 1.675-1.117 3.35-3.35 3.909-5.025 0.558-1.117 1.675-1.675 2.791-2.792 1.117-1.117 2.233-2.233 2.792-3.908h0.558c2.233 0.558 2.792-1.117 3.908-2.791 0-0.558 0-1.117 0.559-1.117 1.117-1.117 1.117-2.233 0.558-3.908 0-0.558-0.558-1.675-0.558-2.233 0-0.558 0-0.558-0.559-1.117-1.675-1.117-1.675-2.233 0-3.35 1.117-0.558 1.117-1.675 1.675-2.233 0.558-1.117 0.558-2.233 0.559-3.908-0.558-1.675-0.558-3.908-1.117-5.583-0.558-2.233-1.117-5.025-1.675-7.259 0-0.558 0-0.558 0-1.116 0-1.675 0-2.792-0.558-4.467-0.558-0.558-0.558-1.675-0.559-2.233-0.558-1.675-1.117-2.792-2.791-3.35-1.675-1.117-3.908-1.675-5.583-2.791-0.558-0.558-1.117 0-1.675 0.558-0.558 1.117-1.675 2.233-2.234 3.35-0.558 0.558-1.117 1.675-1.675 2.791-1.117 1.117-3.35 2.233-5.024 0.559-0.558-1.117-1.117-1.675 0-2.792 1.117-1.675 2.233-3.35 3.908-4.466 0.558-0.558 1.117-1.675 1.675-2.234 0.558-1.117 0.558-2.233 0.558-3.35-0.558-2.233-1.117-4.467-1.117-7.258 0-2.792 0-5.025 0.559-7.816 0.558-1.117 0.558-2.792 1.116-3.908 0-0.558 0.558-1.675 1.117-2.233 1.117-1.117 2.233-2.233 2.792-3.909 0.558-1.675 1.675-3.35 1.675-5.024 0-0.558 0.558-1.117 0.558-1.675 0-0.558 0.558-1.675 0.558-2.234-0.558-1.675 0-2.792 0.558-3.908 0.558-1.117 1.117-2.792 1.675-3.908 1.117-2.233 1.117-5.025 3.35-7.258 0.558-1.117 1.117-2.233 1.675-3.35 0.558-2.233 1.675-3.908 2.792-5.583 0.558-0.558 0.558-0.558 0.558-1.117 0.558-1.675 1.675-3.35 2.792-5.025 1.117-1.675 1.117-3.35 1.675-5.024 0-0.558 0-1.117 0.558-1.675 1.675-1.675 1.117-3.908 0.558-6.142-1.117-2.792-1.675-5.583-1.116-8.374 0-0.558 0-1.117 0.558-1.117 0.558-1.117 0.558-1.675 1.117-2.792v-0.558c1.117-1.117 2.233-2.792 3.908-3.35 2.233-1.117 4.467-1.675 7.258-2.233 2.233 0 4.467-1.117 6.141-3.35 0-0.558 0.558-0.558 1.117-1.117l0.558-0.558c0.558-1.117 1.117-1.675 1.675-2.233 1.117-1.117 2.233-2.792 3.35-3.908 1.117-1.117 2.233-2.792 3.908-4.467l0.559-0.558c1.117-1.117 2.233-2.233 3.349-2.792 1.117-1.117 2.233-2.233 3.35-3.35 1.117-1.117 1.675-2.233 2.792-3.35 1.117-0.558 2.233-1.675 3.35-2.791 1.117-1.117 2.233-2.233 2.791-2.792 1.117-1.117 2.792-2.233 3.909-2.791 1.117-0.558 2.233-1.117 2.791-2.792 0.558-1.675 1.117-2.792 1.675-4.466 0-1.117 0.558-2.233 1.117-3.35 0.558 0 1.117 0 2.233-0.558-0.558-0.558-1.117-0.558-1.117-1.117 0-0.558 0.558-1.117 0.559-1.117 0-0.558 0.558-1.117 0.558-1.675 0 0 0.558 0 0.558-0.558 0 0 0.558 0 0.559-0.558-1.117 0.558-1.675 0-2.234-0.559 0.558 0.558 1.117 0.558 2.234 1.117 0 0 0.558 0 0.558-0.558 0-0.558 0-1.117 0-1.117 0 0-0.558 0-1.117 0-0.558 0-1.117 0.558-1.675 0.558zM182.097 295.292c0-0.558-0.558-0.558-0.559-1.117-0.558-1.117 0-1.675 0.559-2.233 0.558-0.558 1.117-0.558 2.233-0.558 1.117 0.558 1.675 1.117 1.675 2.233 0 0.558 0 1.675 0 2.233 0.558 2.233 0.558 2.233 2.791 2.233 1.117 0 2.233 0 3.35 0 2.233-0.558 4.467-1.675 6.7-2.233 2.233-0.558 4.467-1.117 6.7-1.675 0.558 0 1.117 0 2.233 0 2.233 0.558 3.908 0 5.583-1.117 0.558-0.558 1.675-0.558 2.233-1.116 1.117-0.558 2.233-0.558 3.35-1.117 2.792-1.675 5.583-2.792 7.817-4.466 1.675-1.117 3.35-2.233 5.024-3.35 1.675-1.117 3.35-2.233 5.025-3.35 1.117-0.558 2.792-1.675 3.908-2.792 2.233-1.675 3.908-3.35 6.142-4.466 1.117-0.558 1.675-1.117 2.233-1.675 1.117-0.558 1.675-1.675 2.792-2.233 0.558-0.558 1.117-1.117 2.233-1.675 0.558-0.558 0.558-0.558 0.558-1.117 1.675-1.117 3.35-3.35 4.467-5.025 1.117-1.117 2.233-2.233 3.35-3.908 1.675-1.675 2.792-3.908 4.466-6.141 1.117-1.117 2.233-2.792 2.792-3.909 1.117-2.233 2.233-4.467 3.908-6.141v-0.558c1.117-2.233 2.233-4.467 3.35-6.7 1.675-2.792 2.792-6.141 4.466-8.933 0.558-1.117 1.117-2.233 1.117-3.35 1.117-2.233 1.675-4.467 2.233-6.7 0-0.558 0-0.558 0.559-1.116 1.675-3.35 2.792-6.7 3.349-10.608 0.558-2.233 1.117-4.467 1.675-6.7 1.117-3.35 1.117-6.141 1.675-9.491 0.558-2.233 0.558-5.025 0.559-7.258 0.558-3.35 0.558-7.258 0-10.608 0-2.792-0.558-6.141-0.559-8.933 0-2.792-0.558-5.025-1.116-7.817-0.558-2.792-1.117-5.025-1.675-7.816-1.117-2.233-1.675-4.467-2.234-7.258-0.558-2.233-1.675-3.908-1.674-6.142 0-1.675-0.558-3.35-2.234-3.908-1.675-0.558-2.792-1.117-4.466-2.233-3.35-2.233-5.025-5.025-4.467-8.375 0-1.675 0.558-3.908 1.117-5.583 0.558-1.675 1.117-3.35 0-4.467-0.558-1.675-1.675-2.792-2.233-3.908-1.117-1.675-1.675-2.792-2.792-3.908-1.117-2.233-2.233-4.467-3.908-6.141-2.233-2.792-3.908-5.583-6.7-7.817l-0.558-0.558c-1.675-2.233-3.35-4.467-5.583-6.142-1.117-1.117-2.233-2.233-3.35-2.791-0.558-0.558-1.117-1.117-2.233-1.675-1.675-1.117-3.35-1.675-4.467-2.792-1.675-1.675-3.908-2.792-5.583-3.908 0 0-0.558 0-0.558-0.558-2.233-1.117-3.908-1.675-6.142-2.792-2.233-1.117-4.467-1.675-6.7-1.675-0.558 0-0.558 0-1.116 0-0.558-0.558-1.675-0.558-2.233-0.558-0.558 0-0.558 0-1.117 0-1.117-0.558-2.792 0-3.908 0-2.233 0.558-4.467 0.558-6.7-0.558-2.792-1.117-5.025-2.233-7.258-3.35-1.675-1.117-2.792-2.233-4.467-3.35-3.35-2.792-6.7-6.141-10.608-8.933 0.558-2.792-0.558-3.35-2.791-3.35-1.117 0-2.233 0.558-3.35 1.117-0.558 0.558-0.558 0.558-1.117 1.116-1.675 1.117-2.792 2.792-4.466 3.909-2.792 1.675-3.908 1.117-6.142 0-0.558-0.558-1.117-1.117-1.675-1.675-1.117-1.117-2.233-2.792-2.791-3.909-1.117-2.233-3.35-2.233-5.583-2.233-1.117 0-2.792 0.558-3.908 0.558-2.233 0-4.467 1.117-5.584 2.792-1.117 1.675-2.233 3.35-3.908 5.025-0.558 0.558-1.675 1.117-2.233 2.233-1.117 1.117-2.233 1.117-3.35 0-0.558-0.558-1.117-0.558-1.675-1.117-0.558 0.558-1.117 1.117-1.117 1.675-0.558 1.117-1.117 2.233-1.674 3.909-0.558 1.675-1.675 3.35-2.792 4.466-0.558 0.558-0.558 0.558-1.117 1.117-0.558 1.117-2.233 1.675-3.35 1.675-1.117 1.117-2.233 2.792-2.791 3.908-0.558 1.117-1.117 2.233-1.675 3.908-0.558 0.558-0.558 1.675-1.117 2.233-0.558 1.117-0.558 1.675-0.558 2.792 0.558 1.675-0.558 2.233-2.233 2.791-1.117 0-1.117 0-1.675 1.117 0 1.675 0.558 2.792 1.116 4.467 0.558 0.558 1.117 1.675 1.117 2.233 0 1.117 0.558 1.675 1.675 2.233 0.558 0.558 1.117 1.117 1.675 1.117 0.558 0 0.558 0.558 1.117 0.558 0.558 0.558 1.117 0 1.116-0.558 0.558-1.675 1.117-3.35 1.117-5.025 0.558-2.233 0.558-3.908 1.116-6.142 0.558-1.117 1.117-1.675 1.675-2.233 0 0 0.558 0 1.117 0v0.559c-0.558 2.792-1.675 6.141-2.233 8.933-0.558 1.117-0.558 2.233-1.117 3.349 0 0.558-0.558 1.117-1.116 1.117-1.117 0.558-2.233 1.117-3.35 1.117-0.558 0-1.117 0-1.675 0-1.117-0.558-2.233-1.675-3.35-2.234-0.558-0.558-1.117-1.117-1.675-1.674-0.558-1.117-1.117-2.233-1.675-3.35-0.558-1.117-1.117-1.675-2.233-2.234-0.558-0.558-1.117-0.558-1.675-1.116-1.117-1.117-2.233-1.675-3.908-1.675-0.558 0-1.675 0-2.234 0-0.558 0-1.675 0.558-2.233 1.116-1.117 0.558-1.675 0.558-2.791 0-2.792-1.117-5.583-0.558-8.375 0.559-1.117 0.558-2.233 1.117-3.35 1.116-2.792 0-5.025 0-7.816 0-2.792 0-5.025-0.558-7.817-1.116-1.117 0-2.233 0-3.35 0-2.233 0.558-2.792 2.233-2.233 4.466 0.558 2.233 1.117 5.025 1.117 7.258 0 1.675 0 3.35 0 5.025 0 1.117 0 1.675 0 2.792 0 1.675-0.558 3.35-0.559 5.025-0.558 3.35-2.233 6.141-4.466 8.374-1.675 1.675-3.908 3.35-6.142 3.908-1.117 0.558-2.233 1.117-3.908 1.675-2.792 1.117-5.025 3.35-6.7 6.142-0.558 1.117-1.117 2.233-1.674 3.35-1.117 1.675-1.675 2.792-2.792 4.466-0.558 1.117-1.675 2.233-2.233 3.35-0.558 1.117-1.675 1.675-1.675 2.792-1.117 2.233-1.675 4.467-2.792 6.699-0.558 1.117-0.558 2.792-1.116 3.909-1.117 2.233-1.117 4.467-1.117 7.258 0 0.558 0 1.117 0 2.233 0 2.792-0.558 6.141-0.558 8.933 0 2.792 0 5.583 0.558 8.375 0 1.117 0 2.792 0 3.908 0 2.233 0.558 5.025 0.558 7.258 0 2.233 0 5.025 1.117 7.258v0.558c0.558 2.233 0.558 4.467 1.116 6.7 0 0.558 0 1.117 0.559 1.675 1.117 3.35 1.675 6.141 2.791 9.491 0.558 2.233 1.675 4.467 2.234 6.7 0.558 2.233 2.792 4.467 3.349 7.258v0c1.675 3.35 3.35 6.7 5.584 10.05 0.558 1.117 1.675 2.233 2.233 3.35 1.117 1.675 1.675 3.35 2.791 4.466 0.558 1.117 1.675 2.233 2.234 2.792 0.558 1.117 1.117 2.233 2.233 3.35 1.117 1.117 2.233 2.792 3.35 3.908 1.675 2.792 3.908 5.025 6.141 6.7 1.117 1.117 2.233 1.675 3.35 2.791 0.558 0.558 1.117 0.558 1.117 1.117 0.558 0.558 1.117 1.117 2.233 1.675 4.467 2.233 7.816 5.583 11.725 8.933 1.675 1.675 3.35 3.35 5.583 4.466 2.233 1.675 3.908 3.35 6.7 3.908 0 0 0.558 0 0.558 0.559 1.117 1.117 2.792 1.675 3.908 2.233 2.233 1.117 5.025 2.233 7.258 3.35 0.558 0.558 1.675 0.558 2.233 1.117 1.675 0.558 3.35 1.117 5.025 1.674 1.675 0.558 2.792 1.117 4.467 1.117h0.558c1.117 0.558 1.675 0.558 2.792 0 0.558 0 1.117 0 1.116 0.558 0 0.558 0.558 0.558 1.117 0.559 0.558 0 1.117 0 2.233 0 0.558-0.558 0.558-1.117 1.117-2.234 0.558 0.558 1.117 0.558 1.116 0.559 0.558 1.117 1.675 1.117 2.792 1.116h0.558c1.117 0 1.675 0 2.233-0.558 0-0.558 1.117-0.558 1.675-0.558 1.675 0.558 3.35 0.558 5.025 1.116 1.117 0.558 2.792 0.558 3.35-0.558 0.558-0.558 1.117-1.117 2.233-0.558 1.117 0.558 1.675 0.558 2.792 0 0.558 0 1.117 0 1.117 0 1.675 0.558 2.792 0.558 4.466 1.116 2.233 0.558 2.233 0.558 3.908-1.116 0.558-0.558 1.675-0.558 2.233 0 0.558 1.117 0.558 1.675 0.559 2.791 0.558 0 0.558 0 1.116-0.558 0-1.117 0.558-1.117 1.675-1.675 0.558 0.558 0.558 0.558 1.117 0.558 1.117 1.117 1.675 1.117 2.233-0.558 0-0.558 0-1.117 0.559-1.116 0.558 0 1.117 0.558 1.116 0.558 0.558 1.117 1.675 1.675 2.233 2.791 1.117 1.117 2.792 1.117 3.35 0 0.558-0.558 1.117-0.558 1.675-0.558 0-0.558 0-1.117 0-1.675 1.675 1.117 1.117 1.117 0.559 1.117zM89.417 34.559c1.675 0.558 2.792 0.558 3.349-0.558-1.117 0.558-2.233-0.558-3.349 0.558z" fill="#ffffff" fill-rule="nonzero" stroke="none" stroke-width="1" stroke-linecap="butt" stroke-linejoin="miter" stroke-miterlimit="10" stroke-dasharray="" stroke-dashoffset="0" font-family="none" font-weight="none" font-size="none" text-anchor="none" style="mix-blend-mode: normal" data-fill-palette-color="tertiary"></path></g><g transform="matrix(1,0,0,1,64,114.68646288209608)"><svg viewBox="0 0 192 130.62707423580784" height="130.62707423580784" width="192"><g><svg viewBox="0 0 192 130.62707423580784" height="130.62707423580784" width="192"><g><svg viewBox="0 0 192 130.62707423580784" height="130.62707423580784" width="192"><g><svg viewBox="0 0 192 130.62707423580784" height="130.62707423580784" width="192"><g id="textblocktransform"><svg viewBox="0 0 192 130.62707423580784" height="130.62707423580784" width="192" id="textblock"><g><svg viewBox="0 0 192 130.62707423580784" height="130.62707423580784" width="192"><g transform="matrix(1,0,0,1,0,0)"><svg width="192" viewBox="2.0999999046325684 -37.75 57.25 38.95000076293945" height="130.62707423580784" data-palette-color="#ffffff"><path d="M27.2-19.05Q26.85-13.95 25.2-10.18 23.55-6.4 21.23-3.85 18.9-1.3 16.23-0.05 13.55 1.2 11.15 1.2L11.15 1.2Q9.3 1.2 7.63 0.4 5.95-0.4 4.73-2.02 3.5-3.65 2.8-6.1 2.1-8.55 2.1-11.85L2.1-11.85Q2.1-18.3 3.95-23.1 5.8-27.9 8.63-31.1 11.45-34.3 14.68-35.85 17.9-37.4 20.7-37.4L20.7-37.4Q22.7-37.4 24.18-36.7 25.65-36 26.6-34.83 27.55-33.65 27.98-32.08 28.4-30.5 28.4-28.75L28.4-28.75 21.55-27.45Q21.1-29.45 20.35-30.3 19.6-31.15 18.65-31.15L18.65-31.15Q17.4-31.15 15.9-29.38 14.4-27.6 13.1-24.8 11.8-22 10.9-18.65 10-15.3 9.9-12.05L9.9-12.05Q9.9-8.95 10.83-7.63 11.75-6.3 13.2-6.3L13.2-6.3Q14.2-6.3 15.28-6.8 16.35-7.3 17.2-8.22 18.05-9.15 18.63-10.38 19.2-11.6 19.25-13.05L19.25-13.05 13.9-12.25 14.85-17.2Q17.2-17.5 19.45-17.8L19.45-17.8Q21.35-18.05 23.48-18.4 25.6-18.75 27.2-19.05L27.2-19.05ZM31.7-0.85L23.45-0.3Q25.65-6.95 27.65-13.35L27.65-13.35Q28.5-16.05 29.4-19 30.3-21.95 31.2-24.85 32.1-27.75 32.87-30.45 33.65-33.15 34.25-35.45L34.25-35.45Q37-35.45 39.45-35.75 41.9-36.05 44.75-36.3L44.75-36.3Q44.6-35.2 44.42-33.83 44.25-32.45 44.02-30.95 43.8-29.45 43.55-27.85 43.3-26.25 42.95-23.75 42.6-21.25 42-17.5L42-17.5 42.65-17.5Q44.1-21.3 45.05-23.83 46-26.35 46.6-27.95 47.2-29.55 47.82-31.08 48.45-32.6 49.02-33.98 49.6-35.35 50.1-36.4L50.1-36.4Q51.35-36.5 52.45-36.65 53.55-36.8 54.65-36.98 55.75-37.15 56.87-37.33 58-37.5 59.35-37.75L59.35-37.75Q58.85-34.85 58.4-31.8 57.95-28.75 57.6-25.73 57.25-22.7 56.92-19.75 56.6-16.8 56.35-14.15L56.35-14.15Q55.75-7.95 55.3-2.05L55.3-2.05 46.6-0.5Q46.6-0.75 46.67-1.85 46.75-2.95 46.87-4.55 47-6.15 47.22-8.1 47.45-10.05 47.67-12 47.9-13.95 48.15-15.78 48.4-17.6 48.65-18.9L48.65-18.9 48.2-18.9Q47.5-16.8 46.65-14.48 45.8-12.15 44.92-9.75 44.05-7.35 43.2-5.05 42.35-2.75 41.7-0.65L41.7-0.65Q39.95-0.6 38.7-0.53 37.45-0.45 35.8-0.35L35.8-0.35 37.4-18.9 36.65-18.9Q36.55-18.25 36.15-16.73 35.75-15.2 35.22-13.23 34.7-11.25 34.1-9.13 33.5-7 32.97-5.18 32.45-3.35 32.1-2.18 31.75-1 31.7-0.85L31.7-0.85Z" opacity="1" transform="matrix(1,0,0,1,0,0)" fill="#ffffff" class="undefined-text-0" data-fill-palette-color="primary" id="text-0"></path></svg></g></svg></g></svg></g></svg></g><g></g></svg></g></svg></g></svg></g></svg></g><defs></defs></svg><rect width="320" height="360" fill="none" stroke="none" visibility="hidden"></rect></g></svg></g></svg>